<?xml version="1.0" encoding="utf-8"?>
<!-- Generator: Adobe Illustrator 27.0.0, SVG Export Plug-In . SVG Version: 6.00 Build 0)  -->
<svg version="1.1" id="Livello_1" xmlns="http://www.w3.org/2000/svg" xmlns:xlink="http://www.w3.org/1999/xlink" x="0px" y="0px"
	 viewBox="0 0 381.7 128" style="enable-background:new 0 0 381.7 128;" xml:space="preserve">
<style type="text/css">
	.st0{fill:#B9BF04;}
	.st1{fill:#595302;}
</style>
<path class="st0" d="M176.3,16.4c0-1.6,0.5-2.9,1.4-3.9c0.9-1,2.2-1.4,3.9-1.4c0.9,0,1.7,0.1,2.3,0.4c0.6,0.3,1.2,0.7,1.7,1.2
	l7.7-7.8c-1.5-1.5-3.2-2.7-5.2-3.6c-2-0.9-4.3-1.4-6.9-1.4c-3.4,0-6.5,0.7-9.1,2.2c-2.6,1.5-4.6,3.5-6,6c-1.4,2.5-2.1,5.4-2.1,8.5
	V20h-8.6v10.4h8.6v37.1l12.2-9V30.4h11V20h-11V16.4z"/>
<path class="st0" d="M210.9,59.5c-3.5,0-6.6-0.7-9.4-2.2c-2.8-1.5-4.9-3.5-6.5-6.1c-1.5-2.6-2.3-5.5-2.3-8.9V20h12.2v22.2
	c0,1.3,0.2,2.5,0.7,3.5c0.5,1,1.2,1.7,2.1,2.3c0.9,0.5,2,0.8,3.2,0.8c1.8,0,3.2-0.6,4.2-1.7c1-1.2,1.6-2.7,1.6-4.8V20h12.2v22.3
	c0,3.4-0.8,6.4-2.3,8.9c-1.5,2.6-3.6,4.6-6.3,6C217.6,58.7,214.5,59.5,210.9,59.5z"/>
<polygon class="st0" points="263,20 254.2,20 254.2,4 242,4 242,20 233.4,20 233.4,30.4 242,30.4 242,58.6 254.2,58.6 254.2,30.4 
	263,30.4 "/>
<path class="st0" d="M285.4,59.5c-3.5,0-6.6-0.7-9.4-2.2c-2.8-1.5-4.9-3.5-6.5-6.1c-1.5-2.6-2.3-5.5-2.3-8.9V20h12.2v22.2
	c0,1.3,0.2,2.5,0.7,3.5c0.5,1,1.2,1.7,2.1,2.3c0.9,0.5,2,0.8,3.2,0.8c1.8,0,3.2-0.6,4.2-1.7c1-1.2,1.6-2.7,1.6-4.8V20h12.2v22.3
	c0,3.4-0.8,6.4-2.3,8.9c-1.5,2.6-3.6,4.6-6.3,6C292.2,58.7,289,59.5,285.4,59.5z"/>
<path class="st0" d="M338.1,20c-1.4-0.6-3-0.8-4.9-0.8c-4.2,0-7.5,1.2-9.9,3.7c0,0,0,0,0,0.1v-3h-12.2v38.6h12.2V37.5
	c0-2.5,0.6-4.4,1.8-5.6c1.2-1.2,2.8-1.9,4.9-1.9c1,0,1.9,0.2,2.7,0.5s1.4,0.7,1.9,1.3l7.2-9.2C340.8,21.4,339.5,20.6,338.1,20z"/>
<path class="st0" d="M379.1,28.4c-1.7-2.9-4-5.2-6.9-6.8c-2.9-1.6-6.3-2.5-10.2-2.5c-3.9,0-7.4,0.9-10.6,2.6
	c-3.1,1.7-5.6,4.1-7.4,7.2s-2.7,6.5-2.7,10.3c0,3.9,0.9,7.4,2.8,10.5c1.9,3.1,4.4,5.5,7.6,7.2c3.2,1.7,6.9,2.6,11.1,2.6
	c3.3,0,6.3-0.5,9-1.6c2.7-1.1,5-2.8,6.9-5l-6.7-6.7c-1.2,1.3-2.5,2.3-4,3c-1.5,0.7-3.2,1-5.1,1c-2.1,0-3.9-0.4-5.4-1.3
	c-1.5-0.9-2.7-2.1-3.5-3.8c-0.2-0.5-0.4-1.1-0.6-1.6l27.5-0.1c0.3-1,0.4-1.8,0.5-2.6c0.1-0.8,0.1-1.5,0.1-2.3
	C381.7,34.7,380.8,31.3,379.1,28.4z M357.3,29.8c1.4-0.9,3.1-1.4,5-1.4c1.7,0,3.2,0.4,4.5,1.2c1.2,0.8,2.2,1.9,2.8,3.4
	c0.2,0.6,0.4,1.2,0.6,1.9L353.5,35c0.2-0.5,0.3-1,0.5-1.5C354.8,31.9,355.9,30.7,357.3,29.8z"/>
<path class="st1" d="M213.8,107c-4,0-7.6-0.9-10.8-2.7c-3.2-1.8-5.7-4.2-7.5-7.3c-1.9-3.1-2.8-6.5-2.8-10.3c0-3.8,0.9-7.1,2.7-10.2
	c1.8-3,4.3-5.4,7.5-7.2c3.2-1.8,6.8-2.7,10.9-2.7c4,0,7.6,0.9,10.8,2.6c3.2,1.7,5.7,4.1,7.6,7.2c1.9,3,2.8,6.4,2.8,10.2
	c0,3.9-0.9,7.3-2.8,10.4c-1.9,3-4.4,5.5-7.5,7.3S217.8,107,213.8,107z M213.8,95.9c1.7,0,3.2-0.4,4.5-1.1c1.3-0.7,2.3-1.8,3.1-3.2
	c0.7-1.4,1.1-3,1.1-4.8c0-1.7-0.4-3.3-1.1-4.6c-0.7-1.4-1.8-2.4-3.1-3.2c-1.3-0.8-2.8-1.2-4.5-1.2c-1.7,0-3.2,0.4-4.5,1.2
	c-1.3,0.8-2.4,1.8-3.1,3.2c-0.7,1.4-1.1,2.9-1.1,4.6c0,1.8,0.4,3.4,1.1,4.8c0.7,1.4,1.8,2.5,3.1,3.2
	C210.6,95.5,212.1,95.9,213.8,95.9z"/>
<path class="st1" d="M310,76c-1.7-2.9-4-5.2-6.9-6.8c-2.9-1.6-6.3-2.5-10.2-2.5c-3.9,0-7.4,0.9-10.6,2.6c-3.1,1.7-5.6,4.1-7.4,7.2
	c-1.8,3-2.7,6.5-2.7,10.3c0,3.9,0.9,7.4,2.8,10.5c1.9,3.1,4.4,5.5,7.6,7.2c3.2,1.7,6.9,2.6,11.1,2.6c3.3,0,6.3-0.5,9-1.6
	c2.7-1.1,5-2.8,6.9-5l-6.7-6.7c-1.2,1.3-2.5,2.3-4,3c-1.5,0.7-3.2,1-5.1,1c-2.1,0-3.9-0.4-5.4-1.3s-2.7-2.1-3.5-3.8
	c-0.2-0.5-0.4-1.1-0.6-1.6l27.5-0.1c0.3-1,0.4-1.8,0.5-2.6c0.1-0.8,0.1-1.5,0.1-2.3C312.6,82.2,311.7,78.9,310,76z M288.2,77.3
	c1.4-0.9,3.1-1.4,5-1.4c1.7,0,3.2,0.4,4.5,1.2c1.2,0.8,2.2,1.9,2.8,3.4c0.2,0.6,0.4,1.2,0.6,1.9l-16.6,0.1c0.2-0.5,0.3-1,0.5-1.5
	C285.7,79.5,286.8,78.2,288.2,77.3z"/>
<path class="st1" d="M332.4,107.2c-2.3,0-4.5-0.3-6.7-0.9c-2.2-0.6-4.3-1.5-6.1-2.5c-1.9-1.1-3.5-2.3-4.8-3.8l7-7
	c1.3,1.4,2.8,2.4,4.6,3.2c1.7,0.8,3.6,1.2,5.8,1.2c1.3,0,2.4-0.2,3.1-0.6c0.8-0.4,1.2-1,1.2-1.8c0-1-0.4-1.7-1.4-2.1
	c-0.9-0.4-2.1-0.9-3.5-1.3c-1.5-0.4-3-0.8-4.6-1.4c-1.6-0.5-3.1-1.2-4.5-2c-1.4-0.8-2.6-2-3.5-3.5c-0.9-1.5-1.4-3.4-1.4-5.8
	c0-2.5,0.6-4.6,1.9-6.5c1.3-1.8,3.1-3.3,5.4-4.3c2.3-1.1,5.1-1.6,8.3-1.6c3.2,0,6.2,0.6,9.1,1.7c2.8,1.1,5.1,2.8,6.7,5l-6.9,7.1
	c-1.2-1.4-2.6-2.4-4.1-3.1c-1.5-0.6-3-0.9-4.4-0.9c-1.4,0-2.4,0.2-3.1,0.6c-0.7,0.4-1,1-1,1.7c0,0.8,0.5,1.4,1.4,1.9
	c0.9,0.5,2.1,0.9,3.5,1.3c1.4,0.4,2.9,0.8,4.5,1.3c1.6,0.5,3.1,1.2,4.5,2.1c1.4,0.9,2.6,2.1,3.5,3.7c0.9,1.5,1.4,3.5,1.4,5.9
	c0,3.8-1.4,6.8-4.2,9C341.1,106.1,337.3,107.2,332.4,107.2z"/>
<path class="st1" d="M372.4,117.6V78h8.7V67.6h-8.7v-9.9c-0.2,0.1-0.3,0.2-0.5,0.2c-2.7,1.1-5.7,1.6-9,1.6c-1,0-1.9-0.1-2.8-0.1v8.2
	h-8.7V78h8.7v39.6H254.2V85.5c0-2.5,0.6-4.4,1.8-5.6c1.2-1.2,2.8-1.9,4.9-1.9c1,0,1.9,0.2,2.7,0.5c0.8,0.3,1.4,0.7,1.9,1.3l7.2-9.2
	c-1.1-1.1-2.3-1.9-3.7-2.5c-1.4-0.6-3-0.8-4.9-0.8c-4.2,0-7.5,1.2-9.9,3.7c0,0,0,0,0,0.1l0-12.4H242l0,59h-65.7V78h11V67.6h-11v-3.7
	c0-1.6,0.5-2.9,1.4-3.9c0.9-1,2.2-1.4,3.9-1.4c0.9,0,1.7,0.1,2.3,0.4c0.6,0.3,1.2,0.7,1.7,1.2l7.7-7.8c-1.5-1.5-3.2-2.7-5.2-3.6
	c-2-0.9-4.3-1.4-6.9-1.4c-3.4,0-6.5,0.7-9.1,2.2c-2.6,1.5-4.6,3.5-6,6s-2.1,5.4-2.1,8.5v3.3h-8.6V78h8.6v39.6h-55.5V89.2V63.9
	c0-1.6,0.5-2.9,1.4-3.9c0.9-1,2.2-1.4,3.9-1.4c0.9,0,1.7,0.1,2.3,0.4c0.6,0.3,1.2,0.7,1.7,1.2l7.7-7.8c-1.5-1.5-3.2-2.7-5.2-3.6
	c-2-0.9-4.3-1.4-6.9-1.4c-1.7,0-3.3,0.2-4.8,0.6v-0.8c0-3.2-0.7-6-2.1-8.5s-3.4-4.5-6-6c-2.6-1.5-5.6-2.2-9.1-2.2
	c-2.6,0-5,0.4-6.9,1.4c-2,0.9-3.7,2.1-5.2,3.6l7.7,7.8c0.5-0.5,1-0.9,1.7-1.2c0.6-0.3,1.4-0.4,2.3-0.4c1.7,0,3,0.5,3.9,1.4
	c0.9,1,1.4,2.3,1.4,3.9v17.4v24.9v28.4H51.1V89.2h0V63.9c0-1.6,0.5-2.9,1.4-3.9c0.9-1,2.2-1.4,3.9-1.4c0.9,0,1.7,0.1,2.3,0.4
	c0.6,0.3,1.2,0.7,1.7,1.2l0,0c-1.5-4-2.5-8.2-2.8-12.6c-0.5,0-1.1-0.1-1.7-0.1c-1.7,0-3.3,0.2-4.8,0.6v-0.8c0-3.2-0.7-6-2.1-8.5
	s-3.4-4.5-6-6c-2.6-1.5-5.6-2.2-9.1-2.2c-2.6,0-5,0.4-6.9,1.4c-2,0.9-3.7,2.1-5.2,3.6l7.7,7.8c0.5-0.5,1-0.9,1.7-1.2
	c0.6-0.3,1.4-0.4,2.3-0.4c1.7,0,3,0.5,3.9,1.4c0.9,1,1.4,2.3,1.4,3.9v17.4v24.9v28.4H10.4C4.7,117.6,0,122.2,0,128h381.7
	C381.7,122.6,377.6,118.2,372.4,117.6z"/>
<path class="st0" d="M102.5-0.8c-10.9,0-20.9,3.9-28.7,10.4c0,0,0,0,0,0C65.9,3.1,55.9-0.8,45-0.8c-24.9,0-45,20.1-45,45
	C0,67,16.9,85.8,38.9,88.8V75.8c-15.1-2.8-26.5-16-26.5-31.9C12.4,26,27,11.4,44.9,11.4c7.8,0,14.9,2.7,20.5,7.3c0,0,0,0,0,0
	c-5,7.2-7.9,16-7.9,25.5c0,1.2,0.1,2.3,0.1,3.4c0.2,2.2,0.5,4.4,1,6.5c0,0,0,0,0,0.1c0.3,1.5,0.8,3,1.3,4.4c0,0.1,0.1,0.2,0.1,0.3
	c0.2,0.5,0.3,0.9,0.5,1.4c1.2,3.2,2.9,6.3,4.8,9.1c-4,3.2-8.9,5.4-14.1,6.4v13c8.5-1.2,16.4-4.7,22.7-9.9c6.3,5.2,14,8.8,22.5,9.9
	V75.8c-15.1-2.8-26.5-16-26.5-31.9c0-17.9,14.6-32.5,32.5-32.5c17.9,0,32.5,14.6,32.5,32.5c0,15.8-11.3,29-26.3,31.9v12.9
	c22-3,38.9-21.8,38.9-44.6C147.5,19.3,127.3-0.8,102.5-0.8z"/>
</svg>
