<?xml version="1.0" encoding="utf-8"?>
<!-- Generator: Adobe Illustrator 27.0.0, SVG Export Plug-In . SVG Version: 6.00 Build 0)  -->
<svg version="1.0" id="Livello_1" xmlns="http://www.w3.org/2000/svg" xmlns:xlink="http://www.w3.org/1999/xlink" x="0px" y="0px"
	 viewBox="0 0 108 10.5" style="enable-background:new 0 0 108 10.5;" xml:space="preserve">
<style type="text/css">
	.st0{fill:#595301;}
</style>
<path class="st0" d="M64.4,4.7c0.3,0.3,0.3,0.7,0,1L60.1,10c-0.3,0.3-0.7,0.3-1,0s-0.3-0.7,0-1l3.8-3.8l-3.8-3.8
	c-0.3-0.3-0.3-0.7,0-1s0.7-0.3,1,0L64.4,4.7L64.4,4.7z"/>
<path class="st0" d="M41.2,4.8l4.3-4.3c0.3-0.3,0.7-0.3,1,0c0.2,0.3,0.3,0.7,0,1l-3.8,3.8l3.8,3.8c0.3,0.3,0.3,0.7,0,1s-0.7,0.3-1,0
	l-4.3-4.3C41,5.5,41,5.1,41.2,4.8L41.2,4.8z"/>
<g>
	<path class="st0" d="M11.2,2.3c-0.2,0-0.3,0.1-0.5,0.2c-0.1,0.1-0.2,0.3-0.2,0.5v0c-0.1-0.1-0.1-0.1-0.2-0.2
		c-0.2-0.1-0.4-0.3-0.7-0.4C9.4,2.4,9.1,2.3,8.8,2.3c-0.5,0-0.9,0.1-1.3,0.4c-0.4,0.3-0.7,0.6-0.9,1c-0.2,0.4-0.3,1-0.3,1.5
		c0,0.6,0.1,1.1,0.3,1.5c0.2,0.4,0.5,0.8,0.9,1c0.4,0.3,0.8,0.4,1.3,0.4c0.3,0,0.5,0,0.8-0.1c0.2-0.1,0.4-0.2,0.6-0.3
		c0.1-0.1,0.2-0.2,0.3-0.3c0,0.2,0.1,0.3,0.2,0.5c0.1,0.1,0.3,0.2,0.5,0.2c0.2,0,0.3-0.1,0.5-0.2c0.1-0.1,0.2-0.3,0.2-0.5V3
		c0-0.2-0.1-0.3-0.2-0.5C11.5,2.4,11.4,2.3,11.2,2.3z M10.4,6.2c-0.1,0.3-0.3,0.5-0.5,0.6C9.6,7,9.3,7.1,9,7.1
		C8.7,7.1,8.5,7,8.2,6.8C8,6.7,7.8,6.4,7.7,6.2C7.5,5.9,7.5,5.6,7.5,5.3c0-0.3,0.1-0.6,0.2-0.9C7.8,4.1,8,3.9,8.2,3.7
		C8.5,3.6,8.7,3.5,9,3.5c0.3,0,0.6,0.1,0.8,0.2c0.2,0.2,0.4,0.4,0.5,0.6c0.1,0.3,0.2,0.6,0.2,0.9C10.6,5.6,10.5,5.9,10.4,6.2z"/>
	<path class="st0" d="M16.6,0.3c-0.1,0-0.3-0.1-0.5-0.1c-0.7,0-1.2,0.2-1.6,0.5C14.2,1.1,14,1.5,14,2v0.5h-0.6
		c-0.2,0-0.3,0.1-0.4,0.2c-0.1,0.1-0.2,0.3-0.2,0.4c0,0.2,0.1,0.3,0.2,0.4s0.3,0.2,0.4,0.2H14v3.8c0,0.2,0.1,0.3,0.2,0.5
		c0.1,0.1,0.3,0.2,0.5,0.2c0.2,0,0.3-0.1,0.5-0.2c0.1-0.1,0.2-0.3,0.2-0.5V3.7h1c0.2,0,0.3-0.1,0.4-0.2c0.1-0.1,0.2-0.3,0.2-0.4
		c0-0.2-0.1-0.3-0.2-0.4c-0.1-0.1-0.3-0.2-0.4-0.2h-1V2c0-0.1,0-0.2,0.1-0.3c0-0.1,0.1-0.2,0.2-0.3c0.1-0.1,0.2-0.1,0.4-0.1
		c0.1,0,0.2,0,0.4,0c0.1,0,0.2,0,0.3,0c0.1,0,0.3-0.1,0.4-0.2c0.1-0.1,0.2-0.2,0.2-0.4c0-0.2,0-0.3-0.1-0.4
		C16.9,0.4,16.8,0.3,16.6,0.3z"/>
	<path class="st0" d="M20.5,3.7c0.2,0,0.3-0.1,0.4-0.2c0.1-0.1,0.2-0.2,0.2-0.4c0-0.2-0.1-0.3-0.2-0.4c-0.1-0.1-0.3-0.2-0.4-0.2
		h-0.8V1.8c0-0.2-0.1-0.3-0.2-0.5s-0.3-0.2-0.5-0.2c-0.2,0-0.3,0.1-0.5,0.2c-0.1,0.1-0.2,0.3-0.2,0.5v0.7H18c-0.2,0-0.3,0.1-0.4,0.2
		c-0.1,0.1-0.2,0.2-0.2,0.4c0,0.2,0.1,0.3,0.2,0.4c0.1,0.1,0.3,0.2,0.4,0.2h0.5v2.9c0,0.3,0.1,0.6,0.2,0.8c0.1,0.2,0.2,0.3,0.4,0.4
		c0.2,0.1,0.3,0.2,0.5,0.2c0.2,0,0.3,0,0.5,0c0.2,0,0.5-0.1,0.7-0.2c0.2-0.1,0.3-0.3,0.3-0.5c0-0.2,0-0.3-0.1-0.4
		c-0.1-0.1-0.2-0.1-0.3-0.1c-0.1,0-0.2,0-0.2,0c-0.1,0-0.1,0-0.2,0C20.1,7,20,7,20,7c-0.1,0-0.1-0.1-0.2-0.1c0-0.1-0.1-0.1-0.1-0.2
		V3.7H20.5z"/>
	<path class="st0" d="M26.6,3.1c-0.2-0.3-0.5-0.5-0.9-0.6c-0.3-0.1-0.7-0.2-1-0.2c-0.5,0-0.9,0.1-1.3,0.4c-0.4,0.2-0.8,0.6-1,1
		c-0.3,0.5-0.4,1-0.4,1.6c0,0.5,0.1,1,0.4,1.5c0.2,0.4,0.6,0.8,1,1c0.4,0.3,1,0.4,1.6,0.4c0.4,0,0.7-0.1,1-0.2s0.6-0.3,0.8-0.4
		C26.9,7.5,27,7.3,27,7.1C27,7,27,6.8,26.9,6.7c-0.1-0.1-0.2-0.2-0.4-0.2c-0.1,0-0.2,0-0.4,0.1c-0.1,0-0.2,0.1-0.3,0.2
		c-0.1,0.1-0.2,0.1-0.4,0.2c-0.2,0-0.4,0.1-0.6,0.1c-0.3,0-0.6-0.1-0.8-0.2c-0.3-0.1-0.5-0.3-0.6-0.6c-0.1-0.2-0.2-0.3-0.2-0.5h3.5
		c0.2,0,0.3-0.1,0.4-0.2c0.1-0.1,0.2-0.2,0.2-0.4c0-0.4-0.1-0.7-0.2-1.1S26.8,3.4,26.6,3.1z M23.6,3.9c0.1-0.1,0.3-0.2,0.5-0.3
		c0.2-0.1,0.4-0.1,0.6-0.1c0.2,0,0.4,0,0.6,0.1c0.2,0.1,0.4,0.2,0.5,0.4C25.9,4.2,26,4.4,26,4.6v0.1h-2.8c0-0.1,0-0.2,0.1-0.2
		C23.4,4.2,23.5,4,23.6,3.9z"/>
	<path class="st0" d="M32,2.5c-0.1-0.1-0.3-0.2-0.5-0.2c-0.2,0-0.4,0-0.5,0.1c-0.2,0-0.3,0.1-0.5,0.2c-0.2,0.1-0.3,0.2-0.4,0.3
		c-0.1,0.1-0.2,0.2-0.2,0.3V3.1c0-0.2-0.1-0.3-0.2-0.5c-0.1-0.1-0.3-0.2-0.5-0.2c-0.2,0-0.3,0.1-0.5,0.2c-0.1,0.1-0.2,0.3-0.2,0.5
		v4.4c0,0.2,0.1,0.3,0.2,0.5s0.3,0.2,0.5,0.2c0.2,0,0.3-0.1,0.5-0.2c0.1-0.1,0.2-0.3,0.2-0.5V4.9c0-0.3,0-0.5,0.1-0.7
		C30,4.1,30,3.9,30.2,3.8c0.1-0.1,0.2-0.2,0.4-0.3c0.1-0.1,0.3-0.1,0.4-0.1c0.1,0,0.3,0,0.4,0.1c0.1,0.1,0.2,0.1,0.4,0.1
		c0.1,0,0.3-0.1,0.4-0.2c0.1-0.1,0.2-0.3,0.2-0.5C32.2,2.7,32.2,2.6,32,2.5z"/>
</g>
<g>
	<path class="st0" d="M78.5,2.7c-0.4-0.3-0.8-0.4-1.3-0.4c-0.2,0-0.5,0-0.7,0.1c-0.2,0.1-0.4,0.2-0.6,0.3c-0.2,0.1-0.3,0.2-0.4,0.4
		V0.9c0-0.2-0.1-0.3-0.2-0.5c-0.1-0.1-0.3-0.2-0.5-0.2c-0.2,0-0.3,0.1-0.5,0.2s-0.2,0.3-0.2,0.5v6.7c0,0.2,0.1,0.3,0.2,0.5
		s0.3,0.2,0.5,0.2c0.2,0,0.3-0.1,0.5-0.2c0.1-0.1,0.2-0.3,0.2-0.5V7.5c0.1,0.1,0.2,0.2,0.3,0.2C76,7.9,76.2,8,76.4,8.1
		c0.2,0.1,0.5,0.1,0.8,0.1c0.5,0,0.9-0.1,1.3-0.4c0.4-0.3,0.7-0.6,0.9-1c0.2-0.4,0.3-1,0.3-1.5s-0.1-1.1-0.3-1.5
		C79.2,3.3,78.9,2.9,78.5,2.7z M78.4,6.2c-0.1,0.3-0.3,0.5-0.5,0.6C77.6,7,77.4,7.1,77,7.1S76.5,7,76.2,6.8s-0.4-0.4-0.6-0.6
		c-0.1-0.3-0.2-0.6-0.2-0.9c0-0.3,0.1-0.6,0.2-0.9c0.1-0.3,0.3-0.5,0.6-0.6s0.5-0.2,0.8-0.2s0.6,0.1,0.8,0.2
		c0.2,0.2,0.4,0.4,0.5,0.6c0.1,0.3,0.2,0.6,0.2,0.9C78.6,5.6,78.5,5.9,78.4,6.2z"/>
	<path class="st0" d="M85.3,3.1c-0.2-0.3-0.5-0.5-0.9-0.6c-0.3-0.1-0.7-0.2-1-0.2c-0.5,0-0.9,0.1-1.3,0.4c-0.4,0.2-0.8,0.6-1,1
		c-0.3,0.5-0.4,1-0.4,1.6c0,0.5,0.1,1,0.4,1.5c0.2,0.4,0.6,0.8,1,1c0.4,0.3,1,0.4,1.6,0.4c0.4,0,0.7-0.1,1-0.2
		c0.3-0.1,0.6-0.3,0.8-0.4c0.2-0.2,0.3-0.3,0.3-0.5c0-0.1-0.1-0.3-0.2-0.4c-0.1-0.1-0.2-0.2-0.4-0.2c-0.1,0-0.2,0-0.4,0.1
		c-0.1,0-0.2,0.1-0.3,0.2c-0.1,0.1-0.2,0.1-0.4,0.2c-0.2,0-0.4,0.1-0.6,0.1c-0.3,0-0.6-0.1-0.8-0.2c-0.3-0.1-0.5-0.3-0.6-0.6
		C82.1,6.1,82,5.9,82,5.7h3.5c0.2,0,0.3-0.1,0.4-0.2c0.1-0.1,0.2-0.2,0.2-0.4c0-0.4-0.1-0.7-0.2-1.1C85.8,3.7,85.6,3.4,85.3,3.1z
		 M82.3,3.9c0.1-0.1,0.3-0.2,0.5-0.3c0.2-0.1,0.4-0.1,0.6-0.1c0.2,0,0.4,0,0.6,0.1c0.2,0.1,0.4,0.2,0.5,0.4c0.1,0.2,0.2,0.3,0.2,0.6
		v0.1H82c0-0.1,0-0.2,0.1-0.2C82.1,4.2,82.2,4,82.3,3.9z"/>
	<path class="st0" d="M90.6,0.3c-0.1,0-0.3-0.1-0.5-0.1c-0.7,0-1.2,0.2-1.6,0.5C88.2,1.1,88,1.5,88,2v0.5h-0.6
		c-0.2,0-0.3,0.1-0.4,0.2c-0.1,0.1-0.2,0.3-0.2,0.4c0,0.2,0.1,0.3,0.2,0.4s0.3,0.2,0.4,0.2H88v3.8c0,0.2,0.1,0.3,0.2,0.5
		s0.3,0.2,0.5,0.2c0.2,0,0.3-0.1,0.5-0.2s0.2-0.3,0.2-0.5V3.7h1c0.2,0,0.3-0.1,0.4-0.2c0.1-0.1,0.2-0.3,0.2-0.4
		c0-0.2-0.1-0.3-0.2-0.4c-0.1-0.1-0.3-0.2-0.4-0.2h-1V2c0-0.1,0-0.2,0.1-0.3c0-0.1,0.1-0.2,0.2-0.3c0.1-0.1,0.2-0.1,0.4-0.1
		c0.1,0,0.2,0,0.4,0c0.1,0,0.2,0,0.3,0c0.1,0,0.3-0.1,0.4-0.2c0.1-0.1,0.2-0.2,0.2-0.4c0-0.2,0-0.3-0.1-0.4
		C90.9,0.4,90.8,0.3,90.6,0.3z"/>
	<path class="st0" d="M95.7,2.7c-0.4-0.3-0.9-0.4-1.5-0.4c-0.5,0-1,0.1-1.5,0.4c-0.4,0.3-0.8,0.6-1,1c-0.3,0.4-0.4,1-0.4,1.5
		s0.1,1.1,0.4,1.5c0.3,0.4,0.6,0.8,1,1s0.9,0.4,1.5,0.4c0.5,0,1-0.1,1.5-0.4c0.4-0.2,0.8-0.6,1-1c0.3-0.4,0.4-1,0.4-1.5
		S97,4.2,96.7,3.7C96.5,3.3,96.1,2.9,95.7,2.7z M95.6,6.2c-0.1,0.3-0.3,0.5-0.6,0.6c-0.2,0.1-0.5,0.2-0.8,0.2
		c-0.3,0-0.6-0.1-0.8-0.2c-0.2-0.1-0.4-0.4-0.6-0.6c-0.1-0.3-0.2-0.6-0.2-0.9c0-0.4,0.1-0.7,0.2-0.9c0.1-0.3,0.3-0.5,0.6-0.6
		c0.2-0.1,0.5-0.2,0.8-0.2c0.3,0,0.6,0.1,0.8,0.2s0.4,0.4,0.6,0.6c0.1,0.3,0.2,0.6,0.2,0.9C95.8,5.6,95.8,5.9,95.6,6.2z"/>
	<path class="st0" d="M101.2,2.3c-0.2,0-0.4,0-0.5,0.1c-0.2,0-0.3,0.1-0.5,0.2c-0.2,0.1-0.3,0.2-0.4,0.3c-0.1,0.1-0.2,0.2-0.2,0.3
		V3.1c0-0.2-0.1-0.3-0.2-0.5c-0.1-0.1-0.3-0.2-0.5-0.2c-0.2,0-0.3,0.1-0.5,0.2c-0.1,0.1-0.2,0.3-0.2,0.5v4.4c0,0.2,0.1,0.3,0.2,0.5
		c0.1,0.1,0.3,0.2,0.5,0.2c0.2,0,0.3-0.1,0.5-0.2c0.1-0.1,0.2-0.3,0.2-0.5V4.9c0-0.3,0-0.5,0.1-0.7c0.1-0.2,0.2-0.3,0.3-0.5
		c0.1-0.1,0.2-0.2,0.4-0.3c0.1-0.1,0.3-0.1,0.4-0.1c0.1,0,0.3,0,0.4,0.1c0.1,0.1,0.2,0.1,0.4,0.1c0.1,0,0.3-0.1,0.4-0.2
		c0.1-0.1,0.2-0.3,0.2-0.5c0-0.2-0.1-0.3-0.2-0.4C101.6,2.4,101.4,2.3,101.2,2.3z"/>
	<path class="st0" d="M107.6,5.5c0.1-0.1,0.2-0.2,0.2-0.4c0-0.4-0.1-0.7-0.2-1.1c-0.1-0.3-0.3-0.6-0.6-0.9c-0.2-0.3-0.5-0.5-0.9-0.6
		c-0.3-0.1-0.7-0.2-1-0.2c-0.5,0-0.9,0.1-1.3,0.4c-0.4,0.2-0.8,0.6-1,1c-0.3,0.5-0.4,1-0.4,1.6c0,0.5,0.1,1,0.4,1.5
		c0.2,0.4,0.6,0.8,1,1c0.4,0.3,1,0.4,1.6,0.4c0.4,0,0.7-0.1,1-0.2c0.3-0.1,0.6-0.3,0.8-0.4c0.2-0.2,0.3-0.3,0.3-0.5
		c0-0.1-0.1-0.3-0.2-0.4c-0.1-0.1-0.2-0.2-0.4-0.2c-0.1,0-0.2,0-0.4,0.1c-0.1,0-0.2,0.1-0.3,0.2c-0.1,0.1-0.2,0.1-0.4,0.2
		c-0.2,0-0.4,0.1-0.6,0.1c-0.3,0-0.6-0.1-0.8-0.2c-0.3-0.1-0.5-0.3-0.6-0.6c-0.1-0.2-0.2-0.3-0.2-0.5h3.5
		C107.3,5.7,107.5,5.7,107.6,5.5z M104,3.9c0.1-0.1,0.3-0.2,0.5-0.3c0.2-0.1,0.4-0.1,0.6-0.1c0.2,0,0.4,0,0.6,0.1
		c0.2,0.1,0.4,0.2,0.5,0.4c0.1,0.2,0.2,0.3,0.2,0.6v0.1h-2.8c0-0.1,0-0.2,0.1-0.2C103.8,4.2,103.9,4,104,3.9z"/>
</g>
</svg>
