<?xml version="1.0" encoding="utf-8"?>
<!-- Generator: Adobe Illustrator 27.0.0, SVG Export Plug-In . SVG Version: 6.00 Build 0)  -->
<svg version="1.1" id="Livello_1" xmlns="http://www.w3.org/2000/svg" xmlns:xlink="http://www.w3.org/1999/xlink" x="0px" y="0px"
	 viewBox="0 0 104 10.5" style="enable-background:new 0 0 104 10.5;" xml:space="preserve">
<style type="text/css">
	.st0{fill:#595301;}
</style>
<path class="st0" d="M58.4,4.7c0.3,0.3,0.3,0.7,0,1L54,10c-0.3,0.3-0.7,0.3-1,0s-0.3-0.7,0-1l3.8-3.8L53,1.4c-0.3-0.3-0.3-0.7,0-1
	s0.7-0.3,1,0L58.4,4.7L58.4,4.7z"/>
<path class="st0" d="M37.2,4.8l4.3-4.3c0.3-0.3,0.7-0.3,1,0c0.2,0.3,0.3,0.7,0,1l-3.8,3.8l3.8,3.8c0.3,0.3,0.3,0.7,0,1s-0.7,0.3-1,0
	l-4.3-4.3C37,5.5,37,5.1,37.2,4.8L37.2,4.8z"/>
<g>
	<path class="st0" d="M7.2,2.3C7,2.3,6.9,2.4,6.7,2.5C6.6,2.6,6.5,2.8,6.5,3l0,0C6.4,2.9,6.4,2.9,6.3,2.8C6.1,2.7,5.9,2.5,5.6,2.4
		c-0.2,0-0.5-0.1-0.8-0.1c-0.5,0-0.9,0.1-1.3,0.4s-0.7,0.6-0.9,1c-0.2,0.4-0.3,1-0.3,1.5c0,0.6,0.1,1.1,0.3,1.5
		c0.2,0.4,0.5,0.8,0.9,1C3.9,8,4.3,8.1,4.8,8.1c0.3,0,0.5,0,0.8-0.1C5.8,7.9,6,7.8,6.2,7.7c0.1-0.1,0.2-0.2,0.3-0.3
		c0,0.2,0.1,0.3,0.2,0.5C6.8,8,7,8.1,7.2,8.1S7.5,8,7.7,7.9c0.1-0.1,0.2-0.3,0.2-0.5V3c0-0.2-0.1-0.3-0.2-0.5
		C7.5,2.4,7.4,2.3,7.2,2.3z M6.4,6.2C6.3,6.5,6.1,6.7,5.9,6.8C5.6,7,5.3,7.1,5,7.1S4.5,7,4.2,6.8C4,6.7,3.8,6.4,3.7,6.2
		C3.5,5.9,3.5,5.6,3.5,5.3c0-0.3,0.1-0.6,0.2-0.9C3.8,4.1,4,3.9,4.2,3.7C4.5,3.6,4.7,3.5,5,3.5s0.6,0.1,0.8,0.2
		C6,3.9,6.2,4.1,6.3,4.3c0.1,0.3,0.2,0.6,0.2,0.9C6.6,5.6,6.5,5.9,6.4,6.2z"/>
	<path class="st0" d="M12.6,0.3c-0.1,0-0.3-0.1-0.5-0.1c-0.7,0-1.2,0.2-1.6,0.5C10.2,1.1,10,1.5,10,2v0.5H9.4C9.2,2.5,9.1,2.6,9,2.7
		C8.9,2.8,8.8,3,8.8,3.1c0,0.2,0.1,0.3,0.2,0.4s0.3,0.2,0.4,0.2H10v3.8c0,0.2,0.1,0.3,0.2,0.5c0.1,0.1,0.3,0.2,0.5,0.2
		S11,8.1,11.2,8c0.1-0.1,0.2-0.3,0.2-0.5V3.7h1c0.2,0,0.3-0.1,0.4-0.2C12.9,3.4,13,3.2,13,3.1c0-0.2-0.1-0.3-0.2-0.4
		c-0.1-0.1-0.3-0.2-0.4-0.2h-1V2c0-0.1,0-0.2,0.1-0.3c0-0.1,0.1-0.2,0.2-0.3c0.1-0.1,0.2-0.1,0.4-0.1c0.1,0,0.2,0,0.4,0
		c0.1,0,0.2,0,0.3,0c0.1,0,0.3-0.1,0.4-0.2s0.2-0.2,0.2-0.4s0-0.3-0.1-0.4C12.9,0.4,12.8,0.3,12.6,0.3z"/>
	<path class="st0" d="M16.5,3.7c0.2,0,0.3-0.1,0.4-0.2c0.1-0.1,0.2-0.2,0.2-0.4S17,2.8,16.9,2.7c-0.1-0.1-0.3-0.2-0.4-0.2h-0.8V1.8
		c0-0.2-0.1-0.3-0.2-0.5S15.2,1.1,15,1.1s-0.3,0.1-0.5,0.2c-0.1,0.1-0.2,0.3-0.2,0.5v0.7H14c-0.2,0-0.3,0.1-0.4,0.2
		c-0.1,0.1-0.2,0.2-0.2,0.4s0.1,0.3,0.2,0.4c0.1,0.1,0.3,0.2,0.4,0.2h0.5v2.9c0,0.3,0.1,0.6,0.2,0.8c0.1,0.2,0.2,0.3,0.4,0.4
		C15.3,7.9,15.4,8,15.6,8s0.3,0,0.5,0s0.5-0.1,0.7-0.2s0.3-0.3,0.3-0.5s0-0.3-0.1-0.4s-0.2-0.1-0.3-0.1c-0.1,0-0.2,0-0.2,0
		c-0.1,0-0.1,0-0.2,0C16.1,7,16,7,16,7c-0.1,0-0.1-0.1-0.2-0.1c0-0.1-0.1-0.1-0.1-0.2v-3H16.5z"/>
	<path class="st0" d="M22.6,3.1c-0.2-0.3-0.5-0.5-0.9-0.6c-0.3-0.1-0.7-0.2-1-0.2c-0.5,0-0.9,0.1-1.3,0.4c-0.4,0.2-0.8,0.6-1,1
		c-0.3,0.5-0.4,1-0.4,1.6c0,0.5,0.1,1,0.4,1.5c0.2,0.4,0.6,0.8,1,1c0.4,0.3,1,0.4,1.6,0.4c0.4,0,0.7-0.1,1-0.2
		c0.3-0.1,0.6-0.3,0.8-0.4C22.9,7.5,23,7.3,23,7.1c0-0.1,0-0.3-0.1-0.4c-0.1-0.1-0.2-0.2-0.4-0.2c-0.1,0-0.2,0-0.4,0.1
		c-0.1,0-0.2,0.1-0.3,0.2c-0.1,0.1-0.2,0.1-0.4,0.2c-0.2,0-0.4,0.1-0.6,0.1c-0.3,0-0.6-0.1-0.8-0.2c-0.3-0.1-0.5-0.3-0.6-0.6
		c-0.1-0.2-0.2-0.3-0.2-0.5h3.5c0.2,0,0.3-0.1,0.4-0.2s0.2-0.2,0.2-0.4c0-0.4-0.1-0.7-0.2-1.1S22.8,3.4,22.6,3.1z M19.6,3.9
		c0.1-0.1,0.3-0.2,0.5-0.3s0.4-0.1,0.6-0.1s0.4,0,0.6,0.1s0.4,0.2,0.5,0.4C21.9,4.2,22,4.4,22,4.6v0.1h-2.8c0-0.1,0-0.2,0.1-0.2
		C19.4,4.2,19.5,4,19.6,3.9z"/>
	<path class="st0" d="M28,2.5c-0.1-0.1-0.3-0.2-0.5-0.2s-0.4,0-0.5,0.1c-0.2,0-0.3,0.1-0.5,0.2c-0.2,0.1-0.3,0.2-0.4,0.3
		s-0.2,0.2-0.2,0.3V3.1c0-0.2-0.1-0.3-0.2-0.5c-0.1-0.1-0.3-0.2-0.5-0.2s-0.3,0.1-0.5,0.2c-0.1,0.1-0.2,0.3-0.2,0.5v4.4
		c0,0.2,0.1,0.3,0.2,0.5c0.1,0.2,0.3,0.2,0.5,0.2s0.3-0.1,0.5-0.2c0.1-0.1,0.2-0.3,0.2-0.5V4.9c0-0.3,0-0.5,0.1-0.7
		c0-0.1,0-0.3,0.2-0.4c0.1-0.1,0.2-0.2,0.4-0.3c0.1-0.1,0.3-0.1,0.4-0.1s0.3,0,0.4,0.1s0.2,0.1,0.4,0.1c0.1,0,0.3-0.1,0.4-0.2
		c0.1-0.1,0.2-0.3,0.2-0.5C28.2,2.7,28.2,2.6,28,2.5z"/>
</g>
<g>
	<path class="st0" d="M72.5,2.7c-0.4-0.3-0.8-0.4-1.3-0.4c-0.2,0-0.5,0-0.7,0.1s-0.4,0.2-0.6,0.3s-0.3,0.2-0.4,0.4V0.9
		c0-0.2-0.1-0.3-0.2-0.5c-0.1-0.1-0.3-0.2-0.5-0.2s-0.3,0.1-0.5,0.2s-0.2,0.3-0.2,0.5v6.7c0,0.2,0.1,0.3,0.2,0.5s0.3,0.2,0.5,0.2
		s0.3-0.1,0.5-0.2c0.1-0.1,0.2-0.3,0.2-0.5V7.5c0.1,0.1,0.2,0.2,0.3,0.2C70,7.9,70.2,8,70.4,8.1c0.2,0.1,0.5,0.1,0.8,0.1
		c0.5,0,0.9-0.1,1.3-0.4s0.7-0.6,0.9-1c0.2-0.4,0.3-1,0.3-1.5s-0.1-1.1-0.3-1.5C73.2,3.3,72.9,2.9,72.5,2.7z M72.4,6.2
		c-0.1,0.3-0.3,0.5-0.5,0.6C71.6,7,71.4,7.1,71,7.1S70.5,7,70.2,6.8s-0.4-0.4-0.6-0.6c-0.1-0.3-0.2-0.6-0.2-0.9s0.1-0.6,0.2-0.9
		s0.3-0.5,0.6-0.6s0.5-0.2,0.8-0.2s0.6,0.1,0.8,0.2C72,4,72.2,4.2,72.3,4.4c0.1,0.3,0.2,0.6,0.2,0.9C72.6,5.6,72.5,5.9,72.4,6.2z"/>
	<path class="st0" d="M79.3,3.1c-0.2-0.3-0.5-0.5-0.9-0.6c-0.3-0.1-0.7-0.2-1-0.2c-0.5,0-0.9,0.1-1.3,0.4c-0.4,0.2-0.8,0.6-1,1
		c-0.3,0.5-0.4,1-0.4,1.6c0,0.5,0.1,1,0.4,1.5c0.2,0.4,0.6,0.8,1,1c0.4,0.3,1,0.4,1.6,0.4c0.4,0,0.7-0.1,1-0.2s0.6-0.3,0.8-0.4
		c0.2-0.2,0.3-0.3,0.3-0.5c0-0.1-0.1-0.3-0.2-0.4s-0.2-0.2-0.4-0.2c-0.1,0-0.2,0-0.4,0.1c-0.1,0-0.2,0.1-0.3,0.2
		c-0.1,0.1-0.2,0.1-0.4,0.2c-0.2,0-0.4,0.1-0.6,0.1c-0.3,0-0.6-0.1-0.8-0.2c-0.3-0.1-0.5-0.3-0.6-0.6c0-0.2-0.1-0.4-0.1-0.6h3.5
		c0.2,0,0.3-0.1,0.4-0.2s0.2-0.2,0.2-0.4c0-0.4-0.1-0.7-0.2-1.1C79.8,3.7,79.6,3.4,79.3,3.1z M76.3,3.9c0.1-0.1,0.3-0.2,0.5-0.3
		s0.4-0.1,0.6-0.1s0.4,0,0.6,0.1s0.4,0.2,0.5,0.4c0.1,0.2,0.2,0.3,0.2,0.6v0.1H76c0-0.1,0-0.2,0.1-0.2C76.1,4.2,76.2,4,76.3,3.9z"/>
	<path class="st0" d="M84.6,0.3c-0.1,0-0.3-0.1-0.5-0.1c-0.7,0-1.2,0.2-1.6,0.5C82.2,1.1,82,1.5,82,2v0.5h-0.6
		c-0.2,0-0.3,0.1-0.4,0.2c-0.1,0.1-0.2,0.3-0.2,0.4c0,0.2,0.1,0.3,0.2,0.4s0.3,0.2,0.4,0.2H82v3.8c0,0.2,0.1,0.3,0.2,0.5
		c0.1,0.2,0.3,0.2,0.5,0.2S83,8.1,83.2,8c0.2-0.1,0.2-0.3,0.2-0.5V3.7h1c0.2,0,0.3-0.1,0.4-0.2c0.1-0.1,0.2-0.3,0.2-0.4
		c0-0.2-0.1-0.3-0.2-0.4c-0.1-0.1-0.3-0.2-0.4-0.2h-1V2c0-0.1,0-0.2,0.1-0.3c0-0.1,0.1-0.2,0.2-0.3c0.1-0.1,0.2-0.1,0.4-0.1
		c0.1,0,0.2,0,0.4,0c0.1,0,0.2,0,0.3,0c0.1,0,0.3-0.1,0.4-0.2s0.2-0.2,0.2-0.4s0-0.3-0.1-0.4C84.9,0.4,84.8,0.3,84.6,0.3z"/>
	<path class="st0" d="M89.7,2.7c-0.4-0.3-0.9-0.4-1.5-0.4c-0.5,0-1,0.1-1.5,0.4c-0.4,0.3-0.8,0.6-1,1c-0.3,0.4-0.4,1-0.4,1.5
		s0.1,1.1,0.4,1.5s0.6,0.8,1,1s0.9,0.4,1.5,0.4c0.5,0,1-0.1,1.5-0.4c0.4-0.2,0.8-0.6,1-1c0.3-0.4,0.4-1,0.4-1.5s-0.1-1-0.4-1.5
		C90.5,3.3,90.1,2.9,89.7,2.7z M89.6,6.2c-0.1,0.3-0.3,0.5-0.6,0.6C88.8,6.9,88.5,7,88.2,7s-0.6-0.1-0.8-0.2
		c-0.2-0.1-0.4-0.4-0.6-0.6c-0.1-0.3-0.2-0.6-0.2-0.9c0-0.4,0.1-0.7,0.2-0.9c0.1-0.3,0.3-0.5,0.6-0.6c0.2-0.1,0.5-0.2,0.8-0.2
		s0.6,0.1,0.8,0.2s0.4,0.4,0.6,0.6c0.1,0.3,0.2,0.6,0.2,0.9C89.8,5.6,89.8,5.9,89.6,6.2z"/>
	<path class="st0" d="M95.2,2.3c-0.2,0-0.4,0-0.5,0.1c-0.2,0-0.3,0.1-0.5,0.2c-0.2,0.1-0.3,0.2-0.4,0.3s-0.2,0.2-0.2,0.3V3.1
		c0-0.2-0.1-0.3-0.2-0.5c-0.1-0.1-0.3-0.2-0.5-0.2s-0.3,0.1-0.5,0.2c-0.1,0.1-0.2,0.3-0.2,0.5v4.4c0,0.2,0.1,0.3,0.2,0.5
		c0.1,0.1,0.3,0.2,0.5,0.2s0.3-0.1,0.5-0.2c0.1-0.1,0.2-0.3,0.2-0.5V4.9c0-0.3,0-0.5,0.1-0.7C93.8,4,93.8,3.9,94,3.7
		c0.1-0.1,0.2-0.2,0.4-0.3c0.1-0.1,0.3-0.1,0.4-0.1s0.3,0,0.4,0.1s0.2,0.1,0.4,0.1c0.1,0,0.3-0.1,0.4-0.2c0.1-0.1,0.2-0.3,0.2-0.5
		S96.1,2.5,96,2.4C95.6,2.4,95.4,2.3,95.2,2.3z"/>
	<path class="st0" d="M101.6,5.5c0.1-0.1,0.2-0.2,0.2-0.4c0-0.4-0.1-0.7-0.2-1.1c-0.1-0.3-0.3-0.6-0.6-0.9c-0.2-0.3-0.5-0.5-0.9-0.6
		c-0.3-0.1-0.7-0.2-1-0.2c-0.5,0-0.9,0.1-1.3,0.4c-0.4,0.2-0.8,0.6-1,1c-0.3,0.5-0.4,1-0.4,1.6c0,0.5,0.1,1,0.4,1.5
		c0.2,0.4,0.6,0.8,1,1c0.4,0.3,1,0.4,1.6,0.4c0.4,0,0.7-0.1,1-0.2s0.6-0.3,0.8-0.4c0.2-0.2,0.3-0.3,0.3-0.5c0-0.1-0.1-0.3-0.2-0.4
		s-0.2-0.2-0.4-0.2c-0.1,0-0.2,0-0.4,0.1c-0.1,0-0.2,0.1-0.3,0.2c-0.1,0.1-0.2,0.1-0.4,0.2c-0.2,0-0.4,0.1-0.6,0.1
		c-0.3,0-0.6-0.1-0.8-0.2c-0.3-0.1-0.5-0.3-0.6-0.6c-0.1-0.2-0.2-0.3-0.2-0.5h3.5C101.3,5.7,101.5,5.7,101.6,5.5z M98,3.9
		c0.1-0.1,0.3-0.2,0.5-0.3s0.4-0.1,0.6-0.1s0.4,0,0.6,0.1s0.4,0.2,0.5,0.4c0.1,0.2,0.2,0.3,0.2,0.6v0.1h-2.8c0-0.1,0-0.2,0.1-0.2
		C97.8,4.2,97.9,4,98,3.9z"/>
</g>
</svg>
