<?xml version="1.0" encoding="utf-8"?>
<!-- Generator: Adobe Illustrator 27.0.0, SVG Export Plug-In . SVG Version: 6.00 Build 0)  -->
<svg version="1.1"
	 id="svg2" xmlns:sodipodi="http://sodipodi.sourceforge.net/DTD/sodipodi-0.dtd" xmlns:inkscape="http://www.inkscape.org/namespaces/inkscape" xmlns:svg="http://www.w3.org/2000/svg"
	 xmlns="http://www.w3.org/2000/svg" xmlns:xlink="http://www.w3.org/1999/xlink" x="0px" y="0px" viewBox="0 0 104 10.5"
	 style="enable-background:new 0 0 104 10.5;" xml:space="preserve">
<style type="text/css">
	.st0{fill:#595301;}
</style>
<sodipodi:namedview  bordercolor="#000000" borderopacity="0.25" id="namedview4" inkscape:deskcolor="#d1d1d1" inkscape:pagecheckerboard="0" inkscape:pageopacity="0.0" inkscape:showpageshadow="2" pagecolor="#ffffff">
	</sodipodi:namedview>
<g id="g8" transform="matrix(1.3333333,0,0,-1.3333333,0,13.64)" inkscape:groupmode="layer" inkscape:label="ink_ext_XXXXXX">
	<g id="g10" transform="scale(0.1)">
		<path id="path12" class="st0" d="M437.6,67.1c2.2-2.3,2.2-5.3,0-7.6l-33-32.7c-2.2-2.3-5.2-2.3-7.5,0s-2.2,5.3,0,7.6l28.5,28.9
			l-28.5,28.9c-2.2,2.3-2.2,5.3,0,7.6c2.2,2.3,5.2,2.3,7.5,0L437.6,67.1L437.6,67.1"/>
		<path id="path14" class="st0" d="M278.7,67.1l32.2,32.7c2.2,2.3,5.2,2.3,7.5,0c1.5-2.3,2.2-5.3,0-7.6l-28.5-28.9l28.5-28.9
			c2.2-2.3,2.2-5.3,0-7.6c-2.2-2.3-5.2-2.3-7.5,0l-32.2,32.7C277.2,61.8,277.2,64.8,278.7,67.1L278.7,67.1"/>
		<path id="path16" class="st0" d="M48.1,56.2c-1-2.1-2.4-3.7-4.1-4.9c-1.8-1.2-3.8-1.8-6.2-1.8c-2.3,0-4.3,0.6-6.1,1.8
			c-1.8,1.2-3.1,2.8-4.1,4.9c-1,2.1-1.5,4.4-1.5,6.9c0,2.6,0.5,4.9,1.5,7c1,2.1,2.4,3.7,4.1,4.9c1.8,1.2,3.8,1.8,6.1,1.8
			c2.3,0,4.4-0.6,6.2-1.8c1.8-1.2,3.1-2.8,4.1-4.9c1-2.1,1.5-4.4,1.5-7C49.6,60.6,49.1,58.3,48.1,56.2z M54,85.7
			c-1.4,0-2.5-0.5-3.4-1.4c-0.9-1-1.4-2.1-1.4-3.5v-0.1c-0.5,0.5-1,0.9-1.6,1.4c-1.4,1.1-3.1,2-5,2.7c-1.9,0.7-4,1.1-6.3,1.1
			c-3.6,0-6.8-1-9.7-2.9c-2.9-1.9-5.3-4.6-7-8c-1.7-3.4-2.6-7.3-2.6-11.7c0-4.4,0.9-8.3,2.6-11.6c1.7-3.4,4.1-6,7.1-8
			c3-1.9,6.3-2.9,10-2.9c2,0,3.9,0.3,5.6,1c1.7,0.7,3.2,1.5,4.5,2.5c1,0.7,1.7,1.5,2.4,2.2c0-1.4,0.5-2.6,1.4-3.5
			c0.9-0.9,2-1.4,3.4-1.4c1.4,0,2.5,0.5,3.4,1.4c0.9,0.9,1.4,2.1,1.4,3.5v34.3c0,1.5-0.5,2.7-1.4,3.6C56.5,85.3,55.3,85.7,54,85.7"
			/>
		<path id="path18" class="st0" d="M94.6,101.1c-1.1,0.3-2.3,0.5-3.4,0.5c-5.3,0-9.3-1.3-12-4c-2.7-2.6-4-5.9-4-9.7v-3.7h-4.3
			c-1.3,0-2.4-0.4-3.2-1.3c-0.9-0.8-1.3-1.9-1.3-3.2c0-1.3,0.4-2.4,1.3-3.2c0.9-0.8,1.9-1.3,3.2-1.3h4.3V46.4c0-1.4,0.5-2.6,1.4-3.5
			c0.9-0.9,2.1-1.4,3.4-1.4c1.4,0,2.5,0.5,3.4,1.4c0.9,0.9,1.4,2.1,1.4,3.5v28.7H92c1.3,0,2.3,0.4,3.2,1.3c0.9,0.8,1.3,1.9,1.3,3.2
			c0,1.3-0.4,2.4-1.3,3.2c-0.9,0.8-1.9,1.3-3.2,1.3h-7.3v3.8c0,0.6,0.1,1.3,0.4,2.1c0.3,0.8,0.8,1.5,1.5,2.1
			c0.7,0.6,1.7,0.9,3.1,0.9c0.9,0,1.8-0.1,2.8-0.4c1-0.2,1.7-0.4,2.2-0.4c1,0,1.9,0.4,2.7,1.2c0.8,0.8,1.2,1.9,1.2,3.2
			c0,1.2-0.4,2.1-1.1,2.9C96.6,100.2,95.7,100.7,94.6,101.1"/>
		<path id="path20" class="st0" d="M123.7,75.2c1.3,0,2.3,0.4,3.2,1.3c0.9,0.8,1.3,1.9,1.3,3.1c0,1.3-0.4,2.4-1.3,3.2
			c-0.9,0.9-1.9,1.3-3.2,1.3h-5.7v5.2c0,1.4-0.4,2.6-1.3,3.5c-0.9,0.9-2,1.4-3.4,1.4c-1.4,0-2.5-0.5-3.5-1.4
			c-0.9-0.9-1.4-2.1-1.4-3.5v-5.2h-3.7c-1.3,0-2.3-0.4-3.2-1.3c-0.9-0.8-1.3-1.9-1.3-3.1c0-1.3,0.4-2.4,1.3-3.3
			c0.9-0.9,1.9-1.3,3.2-1.3h3.7V52.8c0-2.6,0.4-4.7,1.2-6.3c0.8-1.5,1.8-2.6,3-3.4c1.2-0.7,2.5-1.2,3.8-1.4c1.4-0.2,2.6-0.3,3.7-0.3
			c1.9,0,3.6,0.5,5.2,1.5c1.6,1,2.4,2.2,2.4,3.7c0,1.2-0.3,2.2-0.9,2.9c-0.6,0.7-1.3,1.1-2,1.1c-0.7,0-1.3-0.1-1.8-0.4
			c-0.5-0.2-1.1-0.4-1.8-0.4c-0.6,0-1.1,0.1-1.6,0.3c-0.5,0.2-0.9,0.6-1.2,1.1c-0.3,0.5-0.4,1.1-0.4,1.9v22H123.7"/>
		<path id="path22" class="st0" d="M165.1,67.9h-20.9c0.1,0.6,0.2,1.3,0.4,1.9c0.6,1.7,1.4,3.1,2.4,4.1c1,1,2.2,1.8,3.6,2.2
			c1.4,0.4,2.9,0.6,4.5,0.6c1.6,0,3.2-0.4,4.7-1.1c1.5-0.7,2.7-1.7,3.7-3c1-1.2,1.5-2.7,1.6-4.2L165.1,67.9z M169.3,79.3
			c-1.9,2-4,3.5-6.4,4.7c-2.4,1.1-5,1.7-7.7,1.7c-3.5,0-6.8-0.9-10-2.8c-3.1-1.8-5.7-4.5-7.6-7.9c-1.9-3.4-2.9-7.6-2.9-12.5
			c0-4.2,0.9-7.9,2.7-11.2c1.8-3.3,4.3-5.9,7.7-7.8c3.3-1.9,7.3-2.9,11.8-2.9c2.7,0,5.2,0.4,7.8,1.3c2.5,0.9,4.4,1.9,5.8,3.1
			c1.5,1.2,2.2,2.5,2.2,4c0,1.1-0.4,2-1.2,2.8c-0.8,0.8-1.7,1.2-2.9,1.2c-0.9,0-1.8-0.2-2.7-0.7c-0.6-0.3-1.2-0.7-2-1.2
			c-0.7-0.5-1.7-0.9-2.8-1.2c-1.2-0.3-2.7-0.5-4.7-0.5c-2.1,0-4.1,0.5-6,1.6c-1.9,1.1-3.4,2.6-4.6,4.6c-0.7,1.2-1.1,2.5-1.4,4h26.3
			c1.3,0,2.4,0.4,3.4,1.2c1,0.8,1.5,1.9,1.5,3.2c0,2.9-0.5,5.7-1.6,8.3C172.6,75.1,171.2,77.4,169.3,79.3"/>
		<path id="path24" class="st0" d="M210,84.3c-1.1,0.9-2.4,1.4-4,1.4c-1.3,0-2.7-0.2-4-0.5c-1.3-0.3-2.6-0.8-3.8-1.5
			c-1.2-0.7-2.2-1.5-3.2-2.5c-0.7-0.8-1.2-1.7-1.7-2.6V80c0,1.4-0.4,2.6-1.4,3.5c-0.9,0.9-2,1.4-3.4,1.4c-1.4,0-2.5-0.5-3.4-1.4
			c-0.9-0.9-1.4-2.1-1.4-3.5V46.4c0-1.4,0.4-2.6,1.4-3.5c0.9-0.9,2-1.4,3.4-1.4c1.4,0,2.5,0.5,3.4,1.4c0.9,0.9,1.4,2.1,1.4,3.5v19.2
			c0,2,0.3,3.6,0.8,5.1c0.5,1.4,1.2,2.6,2,3.6c0.8,1,1.7,1.7,2.7,2.1c1,0.5,2,0.7,2.9,0.7c1.1,0,2-0.2,2.8-0.6
			c0.8-0.4,1.7-0.6,2.8-0.6c1.1,0,2,0.4,3,1.2c0.9,0.8,1.4,2.1,1.4,3.9C211.7,82.3,211.1,83.4,210,84.3"/>
		<path id="path26" class="st0" d="M541.6,55.7c-1-2.1-2.4-3.8-4.1-5c-1.8-1.2-3.8-1.8-6.2-1.8c-2.4,0-4.5,0.6-6.2,1.8
			c-1.8,1.2-3.2,2.9-4.2,5c-1,2.1-1.5,4.5-1.5,7c0,2.6,0.5,5,1.5,7c1,2.1,2.4,3.7,4.2,4.9c1.8,1.2,3.9,1.8,6.2,1.8
			c2.4,0,4.4-0.6,6.2-1.8c1.8-1.2,3.1-2.8,4.1-4.9c1-2.1,1.5-4.4,1.5-7C543.1,60.2,542.6,57.8,541.6,55.7z M542.7,82.6
			c-3,1.9-6.4,2.9-10.2,2.9c-1.9,0-3.7-0.3-5.4-1c-1.7-0.7-3.2-1.5-4.5-2.5c-1.2-0.9-2.1-1.8-2.8-2.8v17.3c0,1.4-0.5,2.6-1.4,3.6
			c-0.9,1-2.1,1.4-3.5,1.4c-1.4,0-2.6-0.5-3.5-1.4c-0.9-1-1.4-2.2-1.4-3.6V44.9c0-1.5,0.5-2.7,1.4-3.6c0.9-0.9,2.1-1.4,3.5-1.4
			c1.4,0,2.6,0.5,3.5,1.4c0.9,1,1.4,2.2,1.4,3.6v0.5c0.6-0.6,1.2-1.2,2-1.8c1.4-1.1,3.1-2,5-2.7c1.9-0.7,3.9-1.1,6.1-1.1
			c3.7,0,7,1,9.9,2.9c2.9,1.9,5.3,4.6,7,8.1c1.8,3.4,2.6,7.4,2.6,11.9c0,4.5-0.9,8.4-2.6,11.8C548.1,78,545.7,80.7,542.7,82.6"/>
		<path id="path28" class="st0" d="M571.5,73.6c1,1,2.2,1.8,3.6,2.2c1.4,0.4,2.9,0.7,4.5,0.7c1.7,0,3.2-0.4,4.7-1.1
			c1.5-0.7,2.7-1.7,3.7-3c1-1.3,1.5-2.7,1.7-4.3v-0.6h-21.1c0.1,0.7,0.2,1.3,0.4,1.9C569.7,71.2,570.5,72.6,571.5,73.6z M594,79.1
			c-1.9,2-4.1,3.6-6.5,4.7c-2.5,1.2-5.1,1.7-7.8,1.7c-3.6,0-6.9-0.9-10.1-2.8c-3.2-1.9-5.8-4.5-7.7-8c-2-3.5-3-7.7-3-12.6
			c0-4.2,0.9-8,2.7-11.3c1.8-3.3,4.4-6,7.8-7.9c3.4-1.9,7.4-2.9,11.9-2.9c2.7,0,5.3,0.5,7.8,1.4c2.5,0.9,4.5,2,5.9,3.2
			c1.5,1.2,2.3,2.5,2.3,4c0,1.1-0.4,2.1-1.2,2.9c-0.8,0.8-1.8,1.2-3,1.2c-0.9,0-1.8-0.2-2.8-0.7c-0.6-0.3-1.3-0.7-2-1.2
			c-0.7-0.5-1.7-0.9-2.9-1.2c-1.2-0.3-2.8-0.5-4.8-0.5c-2.2,0-4.2,0.5-6.1,1.6c-1.9,1.1-3.5,2.6-4.7,4.7c-0.7,1.2-1.1,2.6-1.4,4.1
			h26.6c1.3,0,2.4,0.4,3.4,1.2c1,0.8,1.5,1.9,1.5,3.2c0,3-0.6,5.8-1.7,8.4C597.4,74.7,595.9,77.1,594,79.1"/>
		<path id="path30" class="st0" d="M634.4,101.1c-1.1,0.3-2.3,0.5-3.5,0.5c-5.4,0-9.4-1.3-12.1-4c-2.7-2.7-4.1-6-4.1-9.9v-3.8h-4.4
			c-1.3,0-2.4-0.4-3.2-1.3c-0.9-0.9-1.3-1.9-1.3-3.2c0-1.3,0.4-2.4,1.3-3.2c0.9-0.8,1.9-1.3,3.2-1.3h4.4V45.7c0-1.4,0.5-2.6,1.4-3.6
			c0.9-1,2.1-1.4,3.5-1.4c1.4,0,2.6,0.5,3.5,1.4c0.9,1,1.4,2.1,1.4,3.6v29.1h7.4c1.3,0,2.4,0.4,3.2,1.3c0.9,0.9,1.3,1.9,1.3,3.2
			c0,1.3-0.4,2.4-1.3,3.2c-0.9,0.9-1.9,1.3-3.2,1.3h-7.4v3.9c0,0.6,0.1,1.3,0.4,2.1c0.3,0.8,0.8,1.5,1.5,2.1
			c0.7,0.6,1.8,0.9,3.1,0.9c0.9,0,1.9-0.1,2.8-0.4c1-0.2,1.7-0.4,2.2-0.4c1,0,1.9,0.4,2.7,1.2c0.8,0.8,1.2,1.9,1.2,3.3
			c0,1.2-0.4,2.2-1.1,2.9C636.5,100.2,635.5,100.7,634.4,101.1"/>
		<path id="path32" class="st0" d="M672.2,55.5c-1.1-2.1-2.6-3.7-4.5-4.8c-1.9-1.2-3.9-1.7-6.2-1.7c-2.3,0-4.3,0.6-6.2,1.7
			c-1.9,1.1-3.3,2.7-4.5,4.8c-1.1,2.1-1.7,4.5-1.7,7.2c0,2.8,0.6,5.2,1.7,7.3c1.1,2.1,2.6,3.7,4.5,4.8c1.9,1.2,3.9,1.7,6.2,1.7
			c2.3,0,4.3-0.6,6.2-1.7c1.9-1.1,3.3-2.7,4.5-4.8c1.1-2.1,1.7-4.5,1.7-7.3C673.9,59.9,673.4,57.5,672.2,55.5z M672.7,82.6
			c-3.3,1.9-7,2.9-11.1,2.9c-4.1,0-7.8-1-11.1-2.9c-3.3-1.9-6-4.6-7.9-8.1c-2-3.4-3-7.4-3-11.9c0-4.5,1-8.5,3-11.9
			c2-3.4,4.6-6.1,7.9-8c3.3-1.9,7-2.9,11.1-2.9c4.1,0,7.8,1,11.1,2.9c3.3,1.9,6,4.6,7.9,8c2,3.4,3,7.4,3,11.9c0,4.5-1,8.5-3,11.9
			C678.7,78,676,80.7,672.7,82.6"/>
		<path id="path34" class="st0" d="M714.6,85.5c-1.3,0-2.7-0.2-4.1-0.5c-1.3-0.3-2.6-0.8-3.8-1.5c-1.2-0.7-2.3-1.5-3.2-2.5
			c-0.7-0.8-1.2-1.7-1.7-2.6v1.4c0,1.4-0.5,2.6-1.4,3.6c-0.9,1-2.1,1.4-3.5,1.4s-2.6-0.5-3.5-1.4c-0.9-1-1.4-2.2-1.4-3.6v-34
			c0-1.4,0.5-2.6,1.4-3.6c0.9-1,2.1-1.4,3.5-1.4s2.6,0.5,3.5,1.4c0.9,1,1.4,2.1,1.4,3.6v19.5c0,2,0.3,3.7,0.8,5.1
			c0.5,1.5,1.2,2.7,2,3.7c0.8,1,1.8,1.7,2.8,2.2c1,0.5,2,0.7,3,0.7c1.1,0,2-0.2,2.9-0.6c0.8-0.4,1.8-0.6,2.8-0.6
			c1.1,0,2.1,0.4,3,1.2c0.9,0.8,1.4,2.1,1.4,3.9c0,1.3-0.6,2.4-1.7,3.3C717.6,85.1,716.2,85.5,714.6,85.5"/>
		<path id="path36" class="st0" d="M736.1,73.6c1,1,2.2,1.8,3.6,2.2c1.4,0.4,2.9,0.7,4.5,0.7c1.7,0,3.2-0.4,4.7-1.1
			c1.5-0.7,2.7-1.7,3.7-3c1-1.3,1.5-2.7,1.7-4.3v-0.6h-21.1c0.1,0.7,0.2,1.3,0.4,1.9C734.2,71.2,735,72.6,736.1,73.6z M763.2,60.5
			c1,0.8,1.5,1.9,1.5,3.2c0,3-0.6,5.8-1.7,8.4c-1.1,2.6-2.6,4.9-4.5,6.9c-1.9,2-4.1,3.6-6.5,4.7c-2.5,1.2-5.1,1.7-7.8,1.7
			c-3.6,0-6.9-0.9-10.1-2.8c-3.2-1.9-5.8-4.5-7.7-8c-2-3.5-3-7.7-3-12.6c0-4.2,0.9-8,2.7-11.3c1.8-3.3,4.4-6,7.8-7.9
			c3.4-1.9,7.3-2.9,11.9-2.9c2.7,0,5.3,0.5,7.9,1.4c2.5,0.9,4.5,2,5.9,3.2c1.5,1.2,2.3,2.5,2.3,4c0,1.1-0.4,2.1-1.2,2.9
			c-0.8,0.8-1.8,1.2-3,1.2c-0.9,0-1.8-0.2-2.8-0.7c-0.6-0.3-1.3-0.7-2-1.2c-0.7-0.5-1.7-0.9-2.9-1.2c-1.2-0.3-2.8-0.5-4.8-0.5
			c-2.2,0-4.2,0.5-6.1,1.6c-1.9,1.1-3.5,2.6-4.7,4.7c-0.7,1.2-1.1,2.6-1.4,4.1h26.6C761.1,59.3,762.2,59.7,763.2,60.5"/>
	</g>
</g>
</svg>
