<?xml version="1.0" encoding="utf-8"?>
<!-- Generator: Adobe Illustrator 27.0.0, SVG Export Plug-In . SVG Version: 6.00 Build 0)  -->
<svg version="1.1" id="Livello_1" xmlns="http://www.w3.org/2000/svg" xmlns:xlink="http://www.w3.org/1999/xlink" x="0px" y="0px"
	 viewBox="0 0 381.7 128" style="enable-background:new 0 0 381.7 128;" xml:space="preserve">
<style type="text/css">
	.st0{fill:#B9BF04;}
	.st1{fill:#595302;}
</style>
<path class="st0" d="M176.3,17.1c0-1.6,0.5-2.9,1.4-3.9s2.2-1.4,3.9-1.4c0.9,0,1.7,0.1,2.3,0.4c0.6,0.3,1.2,0.7,1.7,1.2l7.7-7.8
	c-1.5-1.5-3.2-2.7-5.2-3.6s-4.3-1.4-6.9-1.4c-3.4,0-6.5,0.7-9.1,2.2s-4.6,3.5-6,6s-2.1,5.4-2.1,8.4v3.4h-8.6V31h8.6v36.9l12.2-8.9
	V31h11V20.7h-11v-3.6H176.3z"/>
<path class="st0" d="M210.9,59.9c-3.5,0-6.6-0.7-9.4-2.2c-2.8-1.5-4.9-3.5-6.5-6.1c-1.5-2.6-2.3-5.5-2.3-8.8V20.7h12.2v22.1
	c0,1.3,0.2,2.5,0.7,3.5s1.2,1.7,2.1,2.3c0.9,0.5,2,0.8,3.2,0.8c1.8,0,3.2-0.6,4.2-1.7c1-1.2,1.6-2.7,1.6-4.8V20.7h12.2v22.2
	c0,3.4-0.8,6.4-2.3,8.8c-1.5,2.6-3.6,4.6-6.3,6C217.6,59.1,214.5,59.9,210.9,59.9z"/>
<polygon class="st0" points="263,20.7 254.2,20.7 254.2,4.8 242,4.8 242,20.7 233.4,20.7 233.4,31 242,31 242,59 254.2,59 254.2,31 
	263,31 "/>
<path class="st0" d="M285.4,59.9c-3.5,0-6.6-0.7-9.4-2.2s-4.9-3.5-6.5-6.1c-1.5-2.6-2.3-5.5-2.3-8.8V20.7h12.2v22.1
	c0,1.3,0.2,2.5,0.7,3.5s1.2,1.7,2.1,2.3c0.9,0.5,2,0.8,3.2,0.8c1.8,0,3.2-0.6,4.2-1.7c1-1.2,1.6-2.7,1.6-4.8V20.7h12.2v22.2
	c0,3.4-0.8,6.4-2.3,8.8c-1.5,2.6-3.6,4.6-6.3,6C292.2,59.1,289,59.9,285.4,59.9z"/>
<path class="st0" d="M338.1,20.7c-1.4-0.6-3-0.8-4.9-0.8c-4.2,0-7.5,1.2-9.9,3.7c0,0,0,0,0,0.1v-3h-12.2V59h12.2V38
	c0-2.5,0.6-4.4,1.8-5.6c1.2-1.2,2.8-1.9,4.9-1.9c1,0,1.9,0.2,2.7,0.5s1.4,0.7,1.9,1.3l7.2-9.1C340.8,22.1,339.5,21.3,338.1,20.7z"/>
<path class="st0" d="M379.1,29c-1.7-2.9-4-5.2-6.9-6.8c-2.9-1.6-6.3-2.5-10.2-2.5c-3.9,0-7.4,0.9-10.6,2.6c-3.1,1.7-5.6,4.1-7.4,7.2
	s-2.7,6.5-2.7,10.2c0,3.9,0.9,7.4,2.8,10.4c1.9,3.1,4.4,5.5,7.6,7.2s6.9,2.6,11.1,2.6c3.3,0,6.3-0.5,9-1.6s5-2.8,6.9-5l-6.7-6.7
	c-1.2,1.3-2.5,2.3-4,3s-3.2,1-5.1,1c-2.1,0-3.9-0.4-5.4-1.3c-1.5-0.9-2.7-2.1-3.5-3.8c-0.2-0.5-0.4-1.1-0.6-1.6l27.5-0.1
	c0.3-1,0.4-1.8,0.5-2.6s0.1-1.5,0.1-2.3C381.7,35.3,380.8,31.9,379.1,29z M357.3,30.4c1.4-0.9,3.1-1.4,5-1.4c1.7,0,3.2,0.4,4.5,1.2
	c1.2,0.8,2.2,1.9,2.8,3.4c0.2,0.6,0.4,1.2,0.6,1.9l-16.7,0.1c0.2-0.5,0.3-1,0.5-1.5C354.8,32.5,355.9,31.3,357.3,30.4z"/>
<path class="st1" d="M213.8,107.1c-4,0-7.6-0.9-10.8-2.7c-3.2-1.8-5.7-4.2-7.5-7.3c-1.9-3.1-2.8-6.5-2.8-10.2s0.9-7.1,2.7-10.1
	s4.3-5.4,7.5-7.2s6.8-2.7,10.9-2.7c4,0,7.6,0.9,10.8,2.6s5.7,4.1,7.6,7.2c1.9,3,2.8,6.4,2.8,10.1c0,3.9-0.9,7.3-2.8,10.3
	c-1.9,3-4.4,5.5-7.5,7.3C221.6,106.2,217.8,107.1,213.8,107.1z M213.8,96.1c1.7,0,3.2-0.4,4.5-1.1s2.3-1.8,3.1-3.2
	c0.7-1.4,1.1-3,1.1-4.8c0-1.7-0.4-3.3-1.1-4.6c-0.7-1.4-1.8-2.4-3.1-3.2c-1.3-0.8-2.8-1.2-4.5-1.2s-3.2,0.4-4.5,1.2
	s-2.4,1.8-3.1,3.2c-0.7,1.4-1.1,2.9-1.1,4.6c0,1.8,0.4,3.4,1.1,4.8c0.7,1.4,1.8,2.5,3.1,3.2S212.1,96.1,213.8,96.1z"/>
<path class="st1" d="M310,76.3c-1.7-2.9-4-5.2-6.9-6.8s-6.3-2.5-10.2-2.5c-3.9,0-7.4,0.9-10.6,2.6c-3.1,1.7-5.6,4.1-7.4,7.2
	c-1.8,3-2.7,6.5-2.7,10.2c0,3.9,0.9,7.4,2.8,10.4c1.9,3.1,4.4,5.5,7.6,7.2s6.9,2.6,11.1,2.6c3.3,0,6.3-0.5,9-1.6s5-2.8,6.9-5
	l-6.7-6.7c-1.2,1.3-2.5,2.3-4,3s-3.2,1-5.1,1c-2.1,0-3.9-0.4-5.4-1.3s-2.7-2.1-3.5-3.8c-0.2-0.5-0.4-1.1-0.6-1.6l27.5-0.1
	c0.3-1,0.4-1.8,0.5-2.6c0.1-0.8,0.1-1.5,0.1-2.3C312.6,82.5,311.7,79.2,310,76.3z M288.2,77.6c1.4-0.9,3.1-1.4,5-1.4
	c1.7,0,3.2,0.4,4.5,1.2c1.2,0.8,2.2,1.9,2.8,3.4c0.2,0.6,0.4,1.2,0.6,1.9l-16.6,0.1c0.2-0.5,0.3-1,0.5-1.5
	C285.7,79.8,286.8,78.5,288.2,77.6z"/>
<path class="st1" d="M332.4,107.3c-2.3,0-4.5-0.3-6.7-0.9s-4.3-1.5-6.1-2.5c-1.9-1.1-3.5-2.3-4.8-3.8l7-7c1.3,1.4,2.8,2.4,4.6,3.2
	c1.7,0.8,3.6,1.2,5.8,1.2c1.3,0,2.4-0.2,3.1-0.6c0.8-0.4,1.2-1,1.2-1.8c0-1-0.4-1.7-1.4-2.1c-0.9-0.4-2.1-0.9-3.5-1.3
	c-1.5-0.4-3-0.8-4.6-1.4c-1.6-0.5-3.1-1.2-4.5-2s-2.6-2-3.5-3.5s-1.4-3.4-1.4-5.8c0-2.5,0.6-4.6,1.9-6.5c1.3-1.8,3.1-3.3,5.4-4.3
	c2.3-1.1,5.1-1.6,8.3-1.6c3.2,0,6.2,0.6,9.1,1.7c2.8,1.1,5.1,2.8,6.7,5l-6.9,7.1c-1.2-1.4-2.6-2.4-4.1-3.1c-1.5-0.6-3-0.9-4.4-0.9
	s-2.4,0.2-3.1,0.6s-1,1-1,1.7c0,0.8,0.5,1.4,1.4,1.9s2.1,0.9,3.5,1.3s2.9,0.8,4.5,1.3s3.1,1.2,4.5,2.1s2.6,2.1,3.5,3.7
	c0.9,1.5,1.4,3.5,1.4,5.9c0,3.8-1.4,6.8-4.2,8.9C341.1,106.2,337.3,107.3,332.4,107.3z"/>
<path class="st1" d="M372.4,117.7V78.3h8.7V68h-8.7v-9.8c-0.2,0.1-0.3,0.2-0.5,0.2c-2.7,1.1-5.7,1.6-9,1.6c-1,0-1.9-0.1-2.8-0.1V68
	h-8.7v10.3h8.7v39.4H254.2V85.8c0-2.5,0.6-4.4,1.8-5.6c1.2-1.2,2.8-1.9,4.9-1.9c1,0,1.9,0.2,2.7,0.5c0.8,0.3,1.4,0.7,1.9,1.3
	l7.2-9.1c-1.1-1.1-2.3-1.9-3.7-2.5c-1.4-0.6-3-0.8-4.9-0.8c-4.2,0-7.5,1.2-9.9,3.7c0,0,0,0,0,0.1V59.1H242v58.6h-65.7V78.3h11V68
	h-11v-3.7c0-1.6,0.5-2.9,1.4-3.9s2.2-1.4,3.9-1.4c0.9,0,1.7,0.1,2.3,0.4s1.2,0.7,1.7,1.2l7.7-7.8c-1.5-1.5-3.2-2.7-5.2-3.6
	c-2-0.9-4.3-1.4-6.9-1.4c-3.4,0-6.5,0.7-9.1,2.2s-4.6,3.5-6,6s-2.1,5.4-2.1,8.4v3.3h-8.6v10.5h8.6v39.4h-55.5V89.4V64.3
	c0-1.6,0.5-2.9,1.4-3.9s2.2-1.4,3.9-1.4c0.9,0,1.7,0.1,2.3,0.4c0.6,0.3,1.2,0.7,1.7,1.2l7.7-7.8c-1.5-1.5-3.2-2.7-5.2-3.6
	c-2-0.9-4.3-1.4-6.9-1.4c-1.7,0-3.3,0.2-4.8,0.6v-0.8c0-3.2-0.7-6-2.1-8.4c-1.4-2.5-3.4-4.5-6-6S94.9,31,91.4,31
	c-2.6,0-5,0.4-6.9,1.4c-2,0.9-3.7,2.1-5.2,3.6l7.7,7.8c0.5-0.5,1-0.9,1.7-1.2c0.6-0.3,1.4-0.4,2.3-0.4c1.7,0,3,0.5,3.9,1.4
	c0.9,1,1.4,2.3,1.4,3.9v17.3v24.7v28.2H51.1V89.4V64.3c0-1.6,0.5-2.9,1.4-3.9s2.2-1.4,3.9-1.4c0.9,0,1.7,0.1,2.3,0.4
	s1.2,0.7,1.7,1.2c-1.5-4-2.5-8.1-2.8-12.5c-0.5,0-1.1-0.1-1.7-0.1c-1.7,0-3.3,0.2-4.8,0.6v-0.8c0-3.2-0.7-6-2.1-8.4
	c-1.4-2.5-3.4-4.5-6-6s-5.6-2.2-9.1-2.2c-2.6,0-5,0.4-6.9,1.4c-2,0.9-3.7,2.1-5.2,3.6l7.7,7.8c0.5-0.5,1-0.9,1.7-1.2
	c0.6-0.3,1.4-0.4,2.3-0.4c1.7,0,3,0.5,3.9,1.4c0.9,1,1.4,2.3,1.4,3.9V65v24.7v28.2H10.4C4.7,117.7,0,122.2,0,128h381.7
	C381.7,122.6,377.6,118.3,372.4,117.7z"/>
<path class="st0" d="M102.5,0C91.6,0,81.6,3.9,73.8,10.3l0,0C65.9,3.9,55.9,0,45,0C20.1,0,0,20,0,44.7C0,67.4,16.9,86.1,38.9,89
	V76.1c-15.1-2.8-26.5-15.9-26.5-31.7c0-17.8,14.6-32.3,32.5-32.3c7.8,0,14.9,2.7,20.5,7.3l0,0c-5,7.2-7.9,15.9-7.9,25.3
	c0,1.2,0.1,2.3,0.1,3.4c0.2,2.2,0.5,4.4,1,6.5c0,0,0,0,0,0.1c0.3,1.5,0.8,3,1.3,4.4c0,0.1,0.1,0.2,0.1,0.3c0.2,0.5,0.3,0.9,0.5,1.4
	c1.2,3.2,2.9,6.3,4.8,9c-4,3.2-8.9,5.4-14.1,6.4V89c8.5-1.2,16.4-4.7,22.7-9.8c6.3,5.2,14,8.7,22.5,9.8V76.1
	c-15.1-2.8-26.5-15.9-26.5-31.7c0-17.8,14.6-32.3,32.5-32.3s32.5,14.5,32.5,32.3c0,15.7-11.3,28.8-26.3,31.7v12.8
	c22-3,38.9-21.7,38.9-44.3C147.5,20,127.3,0,102.5,0z"/>
</svg>
