<?xml version="1.0" encoding="utf-8"?>
<!-- Generator: Adobe Illustrator 27.0.0, SVG Export Plug-In . SVG Version: 6.00 Build 0)  -->
<svg version="1.1" id="Livello_1" xmlns="http://www.w3.org/2000/svg" xmlns:xlink="http://www.w3.org/1999/xlink" x="0px" y="0px"
	 viewBox="0 0 512 512" style="enable-background:new 0 0 512 512;" xml:space="preserve">
<style type="text/css">
	.st0{fill:#B9BF03;}
</style>
<path class="st0" d="M74,81c373.1,0,286.4,247.9,286.8,286.2L424,431h-20.3l-55-55.6c-30.5,3.3-97.2,27-167.5-28.9
	C110.7,290.6,114.6,223.7,74,81z M136.3,116.9c-38.8-18.4-4.1,7.2-4.1,7.2c35.3,24.4,51.6,57.6,70.5,93.7
	c24.6,47,61.7,109.1,112.7,131c50.8,21.9,26.7,9.8,4.7-6.6c-22-16.6-53.3-68-71.1-101.7C224.2,193.6,201.3,147.8,136.3,116.9
	L136.3,116.9z"/>
</svg>
